inDegrees=yes
nColumns=22
nRows=23
DataType=double
version=3
OpenSimVersion=4.5
endheader
time	pelvis_tilt	pelvis_list	pelvis_rotation	pelvis_tx	pelvis_ty	pelvis_tz	hip_flexion_r	hip_adduction_r	hip_rotation_r	knee_angle_r	ankle_angle_r	mtp_angle_r	hip_flexion_l	hip_adduction_l	hip_rotation_l	knee_angle_l	ankle_angle_l	mtp_angle_l	lumbar_extension	lumbar_bending	lumbar_rotation
0.7839758669611138	-2.654787717552431	5.723646079289688	-3.042341382816345	0.9105346686101504	0.9659058579680433	0.01529200991204113	9.810573218833715	-10.46135011838378	-1.650750888276533	-63.86501829903013	-1.075548838323158	0	18.0078384961628	6.457518154745894	-11.36653178740853	-16.21654406061769	3.030193381904719	0	-3.661978995174395	-10.56383287871698	2.252317906671103
0.7958542891877974	-2.680231413325754	5.731293487558259	-2.840323275194296	0.9228128582982036	0.968061140997912	0.01290094308623241	11.75787623451473	-11.03196084439463	-1.93297172357722	-65.37298800992795	-0.5778793021971003	0	16.79422413299635	6.780121510819957	-11.32695565335976	-15.37324010454101	3.186821961147595	0	-3.717121092319353	-10.42940942779689	1.821743839622373
0.8077327114144809	-2.696699139346642	5.604425640556985	-2.61692379395222	0.9345913335459982	0.9702145550872873	0.01046604416408555	13.80386918680151	-11.4867974261037	-2.323928237315585	-66.65656840189595	0.02762178812950279	0	15.57589809465489	6.965929615520317	-11.21166658741666	-14.51041709420789	3.365957549549433	0	-3.848369265035013	-10.11208194757207	1.357322145481303
0.8196111336411644	-2.699206584237136	5.36391549340797	-2.36726869204727	0.9459543282171708	0.9723047924905676	0.008064147783094212	15.92198510117539	-11.81840713164327	-2.795085832053603	-67.73890202242517	0.7216165979839343	0	14.34918786461331	7.028529250209337	-11.03198518239206	-13.64061946971539	3.593185416885403	0	-4.044591320455917	-9.654559226670697	0.8609148495209856
0.8314895558678479	-2.682071428904512	5.032129126932851	-2.093670943835013	0.9570038117800902	0.9742825084789245	0.005760237938478412	18.06349796000523	-12.02417987398592	-3.318232684176871	-68.59335682398431	1.502336810659287	0	13.10818896867991	6.983261702285916	-10.80923716045272	-12.77512288925841	3.900276868731943	0	-4.292663550992381	-9.096126065548368	0.3419502217625426
0.8433679780945316	-2.639890826354415	4.636222754610046	-1.803740328866871	0.9678252869658585	0.9761106820939246	0.003605990638036851	20.17121821660137	-12.10949159606122	-3.864238143600727	-69.16238480604694	2.380421940328776	0	11.85008828173004	6.851189092391343	-10.57060953921665	-11.92023539893008	4.283169593649106	0	-4.583878745708033	-8.47732374471742	-0.186175905537733
0.8552464003212151	-2.569238002785902	4.205899540918629	-1.508740440017531	0.9784792584897757	0.9777597046867497	0.001639849310364682	22.19807894558199	-12.08572896849408	-4.402313215561987	-69.39267563242841	3.329430569166279	0	10.57664934634733	6.657595367992895	-10.34197639617408	-11.08263379013366	4.726866435983571	0	-4.912854791174068	-7.83777885190225	-0.7082455359263861
0.8671248225478986	-2.469406760333653	3.773210688960219	-1.220122177630099	0.9890181604397196	0.9792095994075932	-0.0001110133949233654	24.10209228851937	-11.96988302804116	-4.903163032743797	-69.22865073566881	4.316454566675693	0	9.28753795038244	6.433294605741167	-10.14415027984023	-10.25852540569249	5.202701159909679	0	-5.273712377860164	-7.217675870996483	-1.211337400034886
0.8790032447745821	-2.34394369160428	3.362552213619451	-0.9467364906910164	0.9994993684758172	0.9804563673129385	-0.001631336374815763	25.82816514073367	-11.77207653479215	-5.34548329835226	-68.57176427959629	5.304874485606793	0	7.984883449057206	6.203497224841954	-9.989828074904725	-9.442863615170085	5.676982363357867	0	-5.656221512282655	-6.646824539618786	-1.684841281957451
0.8908816670012656	-2.200429453512982	3.004957719602435	-0.6959174403378738	1.009956913963691	0.9814845658034737	-0.002914267575354768	27.34993902555747	-11.51761978097782	-5.70787437810316	-67.38182166328228	6.2301591453794	0	6.678185653162051	6.001941655145927	-9.885557244568382	-8.633479107308258	6.109036393968088	0	-6.049209747418153	-6.162040890328669	-2.122561929521051
0.9027600892279493	-2.047272764473876	2.718049833804647	-0.4684003434307739	1.020412785863718	0.9822735549160337	-0.003960338884845436	28.65425084908128	-11.22289998107283	-5.978848688273367	-65.66170618792762	7.019606379371475	0	5.385866428842997	5.848051846213765	-9.824896278498391	-7.851217278407218	6.497790399473351	0	-6.442562712263157	-5.784586026219865	-2.523746478171723
0.9146385114546328	-1.892318324719461	2.492493897948786	-0.2581975228359522	1.030909131713189	0.9828159591778597	-0.004758180608755608	29.71144732337523	-10.86617627925086	-6.152015744652574	-63.39827351002274	7.626718631517039	0	4.120964923978154	5.732036873521508	-9.79133408906184	-7.114685706047247	6.854451717624819	0	-6.823042477606071	-5.50754222734838	-2.892529471493225
0.9265169336813163	-1.743721424046762	2.329886479054216	-0.06114789160556391	1.04149087873206	0.9830985873774575	-0.005334252270341526	30.50982041235461	-10.4665837456	-6.235358984670649	-60.60186740513433	7.988118332866143	0	2.888618557983706	5.65838367369341	-9.777418742235605	-6.428368441831461	7.194995496827238	0	-7.175497981225608	-5.329540353296724	-3.232013958104978
0.9383953559079998	-1.607800524021674	2.225739883995551	0.1262160532813964	1.052191629814231	0.9831082767656695	-0.005726095009481449	31.05304816029383	-10.04386581059735	-6.23937334631487	-57.30904967665472	8.031034927426481	0	1.691609554056538	5.625691698776156	-9.765983107046734	-5.793212132103698	7.525566236262446	0	-7.488556118608726	-5.239376625643152	-3.543242543934349
0.9502737781346835	-1.490215695650722	2.182377663817114	0.3062890257782054	1.063021334145269	0.9828156318455773	-0.005963659771809794	31.39049142789262	-9.626479873229023	-6.165260765091609	-53.65093195279309	7.664166030908792	0	0.5381940620721279	5.6378313920462	-9.747618862140701	-5.223379882063034	7.879249378890503	0	-7.754965030085646	-5.234546652844773	-3.830425922798484
0.9621522003613669	-1.395889193219187	2.196506111002174	0.4814625381816444	1.07397558099874	0.982192819304519	-0.006077966491220178	31.58938009379527	-9.236811105552922	-6.016260739544328	-49.79388856969821	6.820169163470863	0	-0.5639319807442416	5.692652028814105	-9.715070669861726	-4.729355314589916	8.281589133194984	0	-7.971517580215474	-5.305032993647468	-4.09912370255143
0.9740306225880505	-1.331224531979384	2.267542440300934	0.6557683113846358	1.085049715502486	0.9812370162368372	-0.006098850601569224	31.67848739964374	-8.897915983070424	-5.813104984354103	-45.80774050582344	5.580889832233759	0	-1.59487977507352	5.788590302197318	-9.660451533355594	-4.338490561011485	8.747390155107672	0	-8.135357599364728	-5.445885417120339	-4.35011001160466
0.9859090448147341	-1.301195955337713	2.397930300003915	0.8345693265012224	1.096248880215849	0.979959712495198	-0.006058718675584067	31.66147440934522	-8.632571372543865	-5.584506711023688	-41.70897052929934	4.183613272900932	0	-2.540784827703818	5.928064612197322	-9.580230212635787	-4.066510013888048	9.271823529376331	0	-8.245075818430751	-5.655599947961367	-4.584524043371396
0.9977874670414175	-1.311335354663991	2.594856773344061	1.021961134940784	1.107582545933947	0.9783673185550404	-0.0059799337976874	31.54151432182713	-8.462465454184315	-5.364201569124308	-37.51140684900246	3.015820663936868	0	-3.393321840657427	6.118967438229228	-9.472110173109874	-3.919592298294459	9.852523969396076	0	-8.298804760077621	-5.939693518356859	-4.804668554855442
1.009665889268101	-1.366752817343648	2.856281882721558	1.22138334638068	1.119045992852781	0.9764730731761715	-0.005881163556330333	31.33163674682561	-8.396322948462723	-5.195405819949492	-33.23330348713393	2.148326315966237	0	-4.146836474581284	6.359681758703839	-9.333202631012208	-3.897465845326288	10.48158547311173	0	-8.297491110024751	-6.293184093503289	-5.012840934932365
1.021544311494785	-1.469479446608657	3.168406601139286	1.436602225924341	1.130632168561409	0.9743058274071956	-0.005779054678089562	31.03597552046492	-8.427327599858769	-5.142240668570857	-28.87862918467324	1.445299974551361	0	-4.799167064297834	6.636015384635594	-9.162357829673821	-3.997573837632973	11.14432578599098	0	-8.245581304975556	-6.697680902330962	-5.208885211622607
1.033422733721468	-1.616965222564342	3.504866846076062	1.671303161829459	1.142338428688328	0.9719070132668235	-0.005683710760951741	30.64348466226924	-8.527677312766549	-5.28077581208015	-24.43815940390195	0.7907080095438831	0	-5.349110505645248	6.91961702235746	-8.966120981514658	-4.224848560735233	11.83287097796871	0	-8.151350706049167	-7.120501811521063	-5.390979813604979
1.045301155948152	-1.802120070405858	3.834763137344095	1.92729520231926	1.154170774666569	0.9693268817701176	-0.00559401050418426	30.13994378730952	-8.655180911428189	-5.677689307766017	-19.91684854924406	0.08176776519046659	0	-5.800748660684555	7.177243818409349	-8.757265391894931	-4.583860889677052	12.54348433533888	0	-8.02538784544981	-7.524542671746627	-5.558075599502636
